# xmcd CD database file
#
# Track frame offsets:
#	150
#	14645
#	28552
#	42685
#	56812
#	71650
#	85757
#	99060
#	112885
#	166777
#	179807
#	194895
#	208872
#	223667
#	250185
#	264032
#	277947
#	291937
#	306962
#
# Disc length: 4404 seconds
#
# Revision: 0
# Processed by: cddbd v1.4PL0 Copyright (c) Steve Scherf et al.
# Submitted via: CDex 1.51
#
DISCID=1d113213
DTITLE=Lionel Hampton - Masters of Jazz - Lionel Hampton [CD 2)
DYEAR=1999
DGENRE=Jazz
TTITLE0=Flying home
TTITLE1=Loose wig
TTITLE2=Chop-chop
TTITLE3=Flying home n° 2
TTITLE4=Hamp's Boogie Woogie
TTITLE5=Million dollar smile
TTITLE6=Overtime
TTITLE7=Tempo's Boogie
TTITLE8=Flying on a V-disc
TTITLE9=I know that you know
TTITLE10=Blow Top Blues
TTITLE11=Beulah's Boogie
TTITLE12=Hey-ba-ba-re-bop
TTITLE13=Air Mail Special
TTITLE14=Hawk's nest
TTITLE15=Mingus fingers
TTITLE16=Muchacho Azul
TTITLE17=Midnight sun
TTITLE18=Stardust
EXTD=YEAR: 1999
EXTT0=
EXTT1=
EXTT2=
EXTT3=
EXTT4=
EXTT5=
EXTT6=
EXTT7=
EXTT8=
EXTT9=
EXTT10=
EXTT11=
EXTT12=
EXTT13=
EXTT14=
EXTT15=
EXTT16=
EXTT17=
EXTT18=
PLAYORDER=
